<?xml version="1.0" standalone="yes"?>

<svg version="1.1" viewBox="0.0 0.0 960.0 540.0" fill="none" stroke="none" stroke-linecap="square" stroke-miterlimit="10" xmlns="http://www.w3.org/2000/svg" xmlns:xlink="http://www.w3.org/1999/xlink"><clipPath id="p.0"><path d="m0 0l960.0 0l0 540.0l-960.0 0l0 -540.0z" clip-rule="nonzero"></path></clipPath><g clip-path="url(#p.0)"><path fill="#ffffff" d="m0 0l960.0 0l0 540.0l-960.0 0z" fill-rule="evenodd"></path><path fill="#000000" fill-opacity="0.0" d="m37.608925 61.204723l128.78741 0l0 30.582676l-128.78741 0z" fill-rule="evenodd"></path><path stroke="#595959" stroke-width="1.0" stroke-linejoin="round" stroke-linecap="butt" d="m37.608925 61.204723l128.78741 0l0 30.582676l-128.78741 0z" fill-rule="evenodd"></path><path fill="#000000" fill-opacity="0.0" d="m166.39633 61.204723l82.80315 0l0 30.582676l-82.80315 0z" fill-rule="evenodd"></path><path stroke="#595959" stroke-width="3.0" stroke-linejoin="round" stroke-linecap="butt" d="m166.39633 61.204723l82.80315 0l0 30.582676l-82.80315 0z" fill-rule="evenodd"></path><path fill="#000000" fill-opacity="0.0" d="m249.19948 61.204723l90.14174 0l0 30.582676l-90.14174 0z" fill-rule="evenodd"></path><path stroke="#595959" stroke-width="3.0" stroke-linejoin="round" stroke-linecap="butt" d="m249.19948 61.204723l90.14174 0l0 30.582676l-90.14174 0z" fill-rule="evenodd"></path><path fill="#000000" fill-opacity="0.0" d="m339.34122 61.204723l46.015747 0l0 30.582676l-46.015747 0z" fill-rule="evenodd"></path><path stroke="#595959" stroke-width="3.0" stroke-linejoin="round" stroke-linecap="butt" d="m339.34122 61.204723l46.015747 0l0 30.582676l-46.015747 0z" fill-rule="evenodd"></path><path fill="#eeeeee" d="m354.99475 53.787403l3.6771545 0l0 -15.637798l7.3543396 0l0 15.637798l3.6771545 0l-7.354309 7.354328z" fill-rule="evenodd"></path><path stroke="#595959" stroke-width="1.0" stroke-linejoin="round" stroke-linecap="butt" d="m354.99475 53.787403l3.6771545 0l0 -15.637798l7.3543396 0l0 15.637798l3.6771545 0l-7.354309 7.354328z" fill-rule="evenodd"></path><path fill="#000000" fill-opacity="0.0" d="m262.0656 32.107613l64.409454 0l0 22.992126l-64.409454 0z" fill-rule="evenodd"></path><path fill="#000000" d="m273.4875 49.703236q1.1875 -1.421875 2.25 -1.421875q0.546875 0 0.9375 0.28125q0.40625 0.265625 0.640625 0.890625q0.15625 0.453125 0.15625 1.359375l0 2.859375q0 0.640625 0.109375 0.859375q0.078125 0.1875 0.25 0.296875q0.1875 0.09375 0.671875 0.09375l0 0.265625l-3.328125 0l0 -0.265625l0.140625 0q0.46875 0 0.65625 -0.140625q0.1875 -0.140625 0.265625 -0.421875q0.03125 -0.109375 0.03125 -0.6875l0 -2.75q0 -0.90625 -0.25 -1.3125q-0.234375 -0.421875 -0.796875 -0.421875q-0.875 0 -1.734375 0.953125l0 3.53125q0 0.6875 0.078125 0.84375q0.109375 0.203125 0.28125 0.3125q0.1875 0.09375 0.734375 0.09375l0 0.265625l-3.3125 0l0 -0.265625l0.140625 0q0.515625 0 0.6875 -0.25q0.1875 -0.265625 0.1875 -1.0l0 -2.484375q0 -1.21875 -0.0625 -1.484375q-0.046875 -0.265625 -0.171875 -0.359375q-0.109375 -0.09375 -0.296875 -0.09375q-0.203125 0 -0.484375 0.109375l-0.109375 -0.265625l2.015625 -0.8125l0.3125 0l0 1.421875zm8.8359375 -0.984375l7.90625 0l0 0.609375l-7.90625 0l0 -0.609375zm0 2.390625l7.90625 0l0 0.59375l-7.90625 0l0 -0.59375zm12.4296875 -3.96875q0.421875 -1.0 1.0625 -1.546875q0.65625 -0.546875 1.625 -0.546875q1.1875 0 1.828125 0.78125q0.484375 0.578125 0.484375 1.234375q0 1.09375 -1.359375 2.25q0.90625 0.359375 1.375 1.03125q0.46875 0.65625 0.46875 1.5625q0 1.28125 -0.8125 2.21875q-1.078125 1.234375 -3.09375 1.234375q-1.015625 0 -1.375 -0.25q-0.359375 -0.25 -0.359375 -0.53125q0 -0.21875 0.171875 -0.375q0.171875 -0.15625 0.40625 -0.15625q0.1875 0 0.375 0.0625q0.125 0.03125 0.5625 0.265625q0.453125 0.21875 0.609375 0.265625q0.28125 0.078125 0.578125 0.078125q0.75 0 1.296875 -0.578125q0.5625 -0.578125 0.5625 -1.359375q0 -0.578125 -0.25 -1.125q-0.203125 -0.421875 -0.421875 -0.625q-0.3125 -0.296875 -0.875 -0.53125q-0.546875 -0.234375 -1.109375 -0.234375l-0.234375 0l0 -0.234375q0.578125 -0.0625 1.15625 -0.40625q0.578125 -0.34375 0.84375 -0.828125q0.265625 -0.484375 0.265625 -1.0625q0 -0.75 -0.46875 -1.21875q-0.46875 -0.46875 -1.171875 -0.46875q-1.140625 0 -1.90625 1.21875l-0.234375 -0.125z" fill-rule="nonzero"></path><path fill="#000000" fill-opacity="0.0" d="m185.4462 57.514435l57.95276 0l0 22.992126l-57.95276 0z" fill-rule="evenodd"></path><path fill="#000000" d="m196.86807 71.68819l0 2.203125l1.5625 0l0 0.5l-1.5625 0l0 4.359375q0 0.65625 0.1875 0.890625q0.1875 0.21875 0.46875 0.21875q0.25 0 0.46875 -0.15625q0.234375 -0.15625 0.359375 -0.4375l0.28125 0q-0.25 0.71875 -0.71875 1.078125q-0.46875 0.359375 -0.96875 0.359375q-0.34375 0 -0.671875 -0.1875q-0.3125 -0.1875 -0.46875 -0.53125q-0.15625 -0.34375 -0.15625 -1.078125l0 -4.515625l-1.0625 0l0 -0.234375q0.40625 -0.15625 0.828125 -0.546875q0.421875 -0.390625 0.75 -0.90625q0.171875 -0.28125 0.46875 -1.015625l0.234375 0zm5.923538 4.984375l3.78125 0l0 1.109375l-3.78125 0l0 -1.109375zm14.810333 2.015625l-0.6875 1.90625l-5.859375 0l0 -0.265625q2.578125 -2.359375 3.625 -3.859375q1.0625 -1.5 1.0625 -2.734375q0 -0.9375 -0.578125 -1.546875q-0.578125 -0.609375 -1.390625 -0.609375q-0.71875 0 -1.3125 0.4375q-0.578125 0.421875 -0.859375 1.25l-0.265625 0q0.1875 -1.359375 0.9375 -2.078125q0.765625 -0.734375 1.890625 -0.734375q1.21875 0 2.015625 0.78125q0.8125 0.78125 0.8125 1.828125q0 0.75 -0.34375 1.515625q-0.546875 1.1875 -1.765625 2.5q-1.8125 2.0 -2.28125 2.40625l2.59375 0q0.796875 0 1.109375 -0.046875q0.328125 -0.0625 0.578125 -0.234375q0.265625 -0.1875 0.453125 -0.515625l0.265625 0z" fill-rule="nonzero"></path><path fill="#000000" fill-opacity="0.0" d="m273.4462 57.514435l57.95276 0l0 22.992126l-57.95276 0z" fill-rule="evenodd"></path><path fill="#000000" d="m284.86807 71.68819l0 2.203125l1.5625 0l0 0.5l-1.5625 0l0 4.359375q0 0.65625 0.1875 0.890625q0.1875 0.21875 0.46875 0.21875q0.25 0 0.46875 -0.15625q0.234375 -0.15625 0.359375 -0.4375l0.28125 0q-0.25 0.71875 -0.71875 1.078125q-0.46875 0.359375 -0.96875 0.359375q-0.34375 0 -0.671875 -0.1875q-0.3125 -0.1875 -0.46875 -0.53125q-0.15625 -0.34375 -0.15625 -1.078125l0 -4.515625l-1.0625 0l0 -0.234375q0.40625 -0.15625 0.828125 -0.546875q0.421875 -0.390625 0.75 -0.90625q0.171875 -0.28125 0.46875 -1.015625l0.234375 0zm5.923523 4.984375l3.78125 0l0 1.109375l-3.78125 0l0 -1.109375zm9.700958 -5.03125l2.40625 -1.1875l0.25 0l0 8.390625q0 0.828125 0.0625 1.046875q0.078125 0.203125 0.296875 0.3125q0.21875 0.109375 0.890625 0.125l0 0.265625l-3.734375 0l0 -0.265625q0.703125 -0.015625 0.90625 -0.125q0.203125 -0.109375 0.28125 -0.28125q0.078125 -0.1875 0.078125 -1.078125l0 -5.359375q0 -1.09375 -0.0625 -1.390625q-0.0625 -0.234375 -0.203125 -0.34375q-0.125 -0.109375 -0.3125 -0.109375q-0.28125 0 -0.75 0.21875l-0.109375 -0.21875z" fill-rule="nonzero"></path><path fill="#000000" fill-opacity="0.0" d="m345.4462 57.514435l57.95276 0l0 22.992126l-57.95276 0z" fill-rule="evenodd"></path><path fill="#000000" d="m360.53214 71.68819l0 2.203125l1.5625 0l0 0.5l-1.5625 0l0 4.359375q0 0.65625 0.1875 0.890625q0.1875 0.21875 0.46875 0.21875q0.25 0 0.46875 -0.15625q0.234375 -0.15625 0.359375 -0.4375l0.28125 0q-0.25 0.71875 -0.71875 1.078125q-0.46875 0.359375 -0.96875 0.359375q-0.34375 0 -0.671875 -0.1875q-0.3125 -0.1875 -0.46875 -0.53125q-0.15625 -0.34375 -0.15625 -1.078125l0 -4.515625l-1.0625 0l0 -0.234375q0.40625 -0.15625 0.828125 -0.546875q0.421875 -0.390625 0.75 -0.90625q0.171875 -0.28125 0.46875 -1.015625l0.234375 0z" fill-rule="nonzero"></path><path fill="#000000" fill-opacity="0.0" d="m81.438324 54.700787l57.95276 0l0 22.99213l-57.95276 0z" fill-rule="evenodd"></path><path fill="#000000" d="m92.313324 76.35891q0.34375 0 0.578125 0.25q0.234375 0.234375 0.234375 0.5625q0 0.34375 -0.234375 0.578125q-0.234375 0.234375 -0.578125 0.234375q-0.34375 0 -0.578125 -0.234375q-0.234375 -0.234375 -0.234375 -0.578125q0 -0.34375 0.234375 -0.578125q0.234375 -0.234375 0.578125 -0.234375zm7.328125 0q0.34375 0 0.578125 0.25q0.234375 0.234375 0.234375 0.5625q0 0.34375 -0.234375 0.578125q-0.234375 0.234375 -0.578125 0.234375q-0.34375 0 -0.578125 -0.234375q-0.234375 -0.234375 -0.234375 -0.578125q0 -0.34375 0.234375 -0.578125q0.234375 -0.234375 0.578125 -0.234375zm7.328125 0q0.34375 0 0.578125 0.25q0.234375 0.234375 0.234375 0.5625q0 0.34375 -0.234375 0.578125q-0.234375 0.234375 -0.578125 0.234375q-0.34375 0 -0.578125 -0.234375q-0.234375 -0.234375 -0.234375 -0.578125q0 -0.34375 0.234375 -0.578125q0.234375 -0.234375 0.578125 -0.234375z" fill-rule="nonzero"></path><path fill="#000000" fill-opacity="0.0" d="m190.77428 135.0971l34.04724 0l0 30.582687l-34.04724 0z" fill-rule="evenodd"></path><path stroke="#595959" stroke-width="1.0" stroke-linejoin="round" stroke-linecap="butt" d="m190.77428 135.0971l34.04724 0l0 30.582687l-34.04724 0z" fill-rule="evenodd"></path><path fill="#000000" fill-opacity="0.0" d="m190.77428 165.6841l34.04724 0l0 30.582687l-34.04724 0z" fill-rule="evenodd"></path><path stroke="#595959" stroke-width="1.0" stroke-linejoin="round" stroke-linecap="butt" d="m190.77428 165.6841l34.04724 0l0 30.582687l-34.04724 0z" fill-rule="evenodd"></path><path fill="#000000" fill-opacity="0.0" d="m190.77428 196.2711l34.04724 0l0 30.582672l-34.04724 0z" fill-rule="evenodd"></path><path stroke="#595959" stroke-width="1.0" stroke-linejoin="round" stroke-linecap="butt" d="m190.77428 196.2711l34.04724 0l0 30.582672l-34.04724 0z" fill-rule="evenodd"></path><path fill="#000000" fill-opacity="0.0" d="m190.77428 226.8581l34.04724 0l0 30.582672l-34.04724 0z" fill-rule="evenodd"></path><path stroke="#595959" stroke-width="1.0" stroke-linejoin="round" stroke-linecap="butt" d="m190.77428 226.8581l34.04724 0l0 30.582672l-34.04724 0z" fill-rule="evenodd"></path><path fill="#000000" fill-opacity="0.0" d="m277.39896 135.0971l34.04724 0l0 30.582687l-34.04724 0z" fill-rule="evenodd"></path><path stroke="#595959" stroke-width="1.0" stroke-linejoin="round" stroke-linecap="butt" d="m277.39896 135.0971l34.04724 0l0 30.582687l-34.04724 0z" fill-rule="evenodd"></path><path fill="#000000" fill-opacity="0.0" d="m277.39896 165.6841l34.04724 0l0 30.582687l-34.04724 0z" fill-rule="evenodd"></path><path stroke="#595959" stroke-width="1.0" stroke-linejoin="round" stroke-linecap="butt" d="m277.39896 165.6841l34.04724 0l0 30.582687l-34.04724 0z" fill-rule="evenodd"></path><path fill="#000000" fill-opacity="0.0" d="m277.39896 196.2711l34.04724 0l0 30.582672l-34.04724 0z" fill-rule="evenodd"></path><path stroke="#595959" stroke-width="1.0" stroke-linejoin="round" stroke-linecap="butt" d="m277.39896 196.2711l34.04724 0l0 30.582672l-34.04724 0z" fill-rule="evenodd"></path><path fill="#000000" fill-opacity="0.0" d="m277.33466 226.8581l34.04724 0l0 30.582672l-34.04724 0z" fill-rule="evenodd"></path><path stroke="#595959" stroke-width="1.0" stroke-linejoin="round" stroke-linecap="butt" d="m277.33466 226.8581l34.04724 0l0 30.582672l-34.04724 0z" fill-rule="evenodd"></path><path fill="#000000" fill-opacity="0.0" d="m345.32547 135.0971l34.04724 0l0 30.582687l-34.04724 0z" fill-rule="evenodd"></path><path stroke="#595959" stroke-width="1.0" stroke-linejoin="round" stroke-linecap="butt" d="m345.32547 135.0971l34.04724 0l0 30.582687l-34.04724 0z" fill-rule="evenodd"></path><path fill="#000000" fill-opacity="0.0" d="m345.32547 165.6841l34.04724 0l0 30.582687l-34.04724 0z" fill-rule="evenodd"></path><path stroke="#595959" stroke-width="1.0" stroke-linejoin="round" stroke-linecap="butt" d="m345.32547 165.6841l34.04724 0l0 30.582687l-34.04724 0z" fill-rule="evenodd"></path><path fill="#000000" fill-opacity="0.0" d="m345.32547 196.2711l34.04724 0l0 30.582672l-34.04724 0z" fill-rule="evenodd"></path><path stroke="#595959" stroke-width="1.0" stroke-linejoin="round" stroke-linecap="butt" d="m345.32547 196.2711l34.04724 0l0 30.582672l-34.04724 0z" fill-rule="evenodd"></path><path fill="#000000" fill-opacity="0.0" d="m345.32547 226.8581l34.04724 0l0 30.582672l-34.04724 0z" fill-rule="evenodd"></path><path stroke="#595959" stroke-width="1.0" stroke-linejoin="round" stroke-linecap="butt" d="m345.32547 226.8581l34.04724 0l0 30.582672l-34.04724 0z" fill-rule="evenodd"></path><path fill="#000000" fill-opacity="0.0" d="m185.43832 254.70079l57.95276 0l0 22.992111l-57.95276 0z" fill-rule="evenodd"></path><path fill="#000000" d="m201.31332 267.62454l0 3.4375l-0.265625 0q-0.140625 -1.0 -0.484375 -1.578125q-0.328125 -0.59375 -0.96875 -0.9375q-0.625 -0.34375 -1.296875 -0.34375q-0.765625 0 -1.265625 0.46875q-0.484375 0.46875 -0.484375 1.0625q0 0.453125 0.3125 0.828125q0.453125 0.546875 2.15625 1.46875q1.390625 0.734375 1.890625 1.140625q0.515625 0.390625 0.78125 0.9375q0.28125 0.546875 0.28125 1.140625q0 1.125 -0.875 1.953125q-0.875 0.8125 -2.25 0.8125q-0.421875 0 -0.8125 -0.078125q-0.21875 -0.03125 -0.9375 -0.265625q-0.71875 -0.234375 -0.90625 -0.234375q-0.1875 0 -0.296875 0.109375q-0.09375 0.109375 -0.15625 0.46875l-0.265625 0l0 -3.40625l0.265625 0q0.203125 1.0625 0.515625 1.59375q0.328125 0.53125 0.984375 0.890625q0.671875 0.34375 1.453125 0.34375q0.921875 0 1.453125 -0.484375q0.53125 -0.484375 0.53125 -1.140625q0 -0.375 -0.203125 -0.734375q-0.203125 -0.375 -0.625 -0.703125q-0.28125 -0.21875 -1.5625 -0.921875q-1.265625 -0.71875 -1.8125 -1.140625q-0.53125 -0.4375 -0.8125 -0.9375q-0.28125 -0.515625 -0.28125 -1.140625q0 -1.0625 0.8125 -1.828125q0.828125 -0.78125 2.09375 -0.78125q0.796875 0 1.671875 0.390625q0.421875 0.171875 0.578125 0.171875q0.203125 0 0.3125 -0.109375q0.125 -0.109375 0.203125 -0.453125l0.265625 0z" fill-rule="nonzero"></path><path fill="#000000" d="m204.1988 277.3433l0 1.46875l1.046875 0l0 0.34375l-1.046875 0l0 2.890625q0 0.4375 0.125 0.59375q0.125 0.140625 0.328125 0.140625q0.15625 0 0.296875 -0.09375q0.15625 -0.09375 0.25 -0.296875l0.1875 0q-0.171875 0.484375 -0.484375 0.734375q-0.3125 0.234375 -0.640625 0.234375q-0.234375 0 -0.453125 -0.125q-0.203125 -0.125 -0.3125 -0.359375q-0.09375 -0.234375 -0.09375 -0.71875l0 -3.0l-0.71875 0l0 -0.171875q0.265625 -0.109375 0.546875 -0.359375q0.28125 -0.25 0.5 -0.609375q0.125 -0.1875 0.3125 -0.671875l0.15625 0zm1.5100403 3.328125l2.53125 0l0 0.734375l-2.53125 0l0 -0.734375zm7.4238586 1.328125l-0.453125 1.28125l-3.90625 0l0 -0.1875q1.71875 -1.5625 2.421875 -2.5625q0.703125 -1.0 0.703125 -1.828125q0 -0.625 -0.390625 -1.03125q-0.375 -0.40625 -0.921875 -0.40625q-0.484375 0 -0.875 0.296875q-0.390625 0.28125 -0.5625 0.828125l-0.1875 0q0.125 -0.90625 0.625 -1.390625q0.5 -0.484375 1.265625 -0.484375q0.796875 0 1.34375 0.53125q0.546875 0.515625 0.546875 1.21875q0 0.5 -0.234375 1.0q-0.375 0.796875 -1.171875 1.671875q-1.21875 1.328125 -1.53125 1.609375l1.734375 0q0.53125 0 0.734375 -0.03125q0.21875 -0.046875 0.390625 -0.171875q0.171875 -0.125 0.296875 -0.34375l0.171875 0z" fill-rule="nonzero"></path><path fill="#000000" fill-opacity="0.0" d="m273.38058 254.16536l57.95276 0l0 22.992111l-57.95276 0z" fill-rule="evenodd"></path><path fill="#000000" d="m289.25558 267.0891l0 3.4375l-0.265625 0q-0.140625 -1.0 -0.484375 -1.578125q-0.328125 -0.59375 -0.96875 -0.9375q-0.625 -0.34375 -1.296875 -0.34375q-0.765625 0 -1.265625 0.46875q-0.484375 0.46875 -0.484375 1.0625q0 0.453125 0.3125 0.828125q0.453125 0.546875 2.15625 1.46875q1.390625 0.734375 1.890625 1.140625q0.515625 0.390625 0.78125 0.9375q0.28125 0.546875 0.28125 1.140625q0 1.125 -0.875 1.953125q-0.875 0.8125 -2.25 0.8125q-0.421875 0 -0.8125 -0.078125q-0.21875 -0.03125 -0.9375 -0.265625q-0.71875 -0.234375 -0.90625 -0.234375q-0.1875 0 -0.296875 0.109375q-0.09375 0.109375 -0.15625 0.46875l-0.265625 0l0 -3.40625l0.265625 0q0.203125 1.0625 0.515625 1.59375q0.328125 0.53125 0.984375 0.890625q0.671875 0.34375 1.453125 0.34375q0.921875 0 1.453125 -0.484375q0.53125 -0.484375 0.53125 -1.140625q0 -0.375 -0.203125 -0.734375q-0.203125 -0.375 -0.625 -0.703125q-0.28125 -0.21875 -1.5625 -0.921875q-1.265625 -0.71875 -1.8125 -1.140625q-0.53125 -0.4375 -0.8125 -0.9375q-0.28125 -0.515625 -0.28125 -1.140625q0 -1.0625 0.8125 -1.828125q0.828125 -0.78125 2.09375 -0.78125q0.796875 0 1.671875 0.390625q0.421875 0.171875 0.578125 0.171875q0.203125 0 0.3125 -0.109375q0.125 -0.109375 0.203125 -0.453125l0.265625 0z" fill-rule="nonzero"></path><path fill="#000000" d="m292.14105 276.80786l0 1.46875l1.046875 0l0 0.34375l-1.046875 0l0 2.890625q0 0.4375 0.125 0.59375q0.125 0.140625 0.328125 0.140625q0.15625 0 0.296875 -0.09375q0.15625 -0.09375 0.25 -0.296875l0.1875 0q-0.171875 0.484375 -0.484375 0.734375q-0.3125 0.234375 -0.640625 0.234375q-0.234375 0 -0.453125 -0.125q-0.203125 -0.125 -0.3125 -0.359375q-0.09375 -0.234375 -0.09375 -0.71875l0 -3.0l-0.71875 0l0 -0.171875q0.265625 -0.109375 0.546875 -0.359375q0.28125 -0.25 0.5 -0.609375q0.125 -0.1875 0.3125 -0.671875l0.15625 0zm1.5100403 3.328125l2.53125 0l0 0.734375l-2.53125 0l0 -0.734375zm4.0176086 -3.359375l1.609375 -0.796875l0.15625 0l0 5.59375q0 0.5625 0.046875 0.703125q0.046875 0.125 0.1875 0.203125q0.15625 0.078125 0.609375 0.078125l0 0.1875l-2.484375 0l0 -0.1875q0.46875 0 0.59375 -0.0625q0.140625 -0.078125 0.1875 -0.203125q0.0625 -0.125 0.0625 -0.71875l0 -3.5625q0 -0.734375 -0.046875 -0.9375q-0.03125 -0.15625 -0.125 -0.21875q-0.09375 -0.078125 -0.21875 -0.078125q-0.1875 0 -0.5 0.140625l-0.078125 -0.140625z" fill-rule="nonzero"></path><path fill="#000000" fill-opacity="0.0" d="m345.43832 254.70079l57.95276 0l0 22.992111l-57.95276 0z" fill-rule="evenodd"></path><path fill="#000000" d="m361.31332 267.62454l0 3.4375l-0.265625 0q-0.140625 -1.0 -0.484375 -1.578125q-0.328125 -0.59375 -0.96875 -0.9375q-0.625 -0.34375 -1.296875 -0.34375q-0.765625 0 -1.265625 0.46875q-0.484375 0.46875 -0.484375 1.0625q0 0.453125 0.3125 0.828125q0.453125 0.546875 2.15625 1.46875q1.390625 0.734375 1.890625 1.140625q0.515625 0.390625 0.78125 0.9375q0.28125 0.546875 0.28125 1.140625q0 1.125 -0.875 1.953125q-0.875 0.8125 -2.25 0.8125q-0.421875 0 -0.8125 -0.078125q-0.21875 -0.03125 -0.9375 -0.265625q-0.71875 -0.234375 -0.90625 -0.234375q-0.1875 0 -0.296875 0.109375q-0.09375 0.109375 -0.15625 0.46875l-0.265625 0l0 -3.40625l0.265625 0q0.203125 1.0625 0.515625 1.59375q0.328125 0.53125 0.984375 0.890625q0.671875 0.34375 1.453125 0.34375q0.921875 0 1.453125 -0.484375q0.53125 -0.484375 0.53125 -1.140625q0 -0.375 -0.203125 -0.734375q-0.203125 -0.375 -0.625 -0.703125q-0.28125 -0.21875 -1.5625 -0.921875q-1.265625 -0.71875 -1.8125 -1.140625q-0.53125 -0.4375 -0.8125 -0.9375q-0.28125 -0.515625 -0.28125 -1.140625q0 -1.0625 0.8125 -1.828125q0.828125 -0.78125 2.09375 -0.78125q0.796875 0 1.671875 0.390625q0.421875 0.171875 0.578125 0.171875q0.203125 0 0.3125 -0.109375q0.125 -0.109375 0.203125 -0.453125l0.265625 0z" fill-rule="nonzero"></path><path fill="#000000" d="m364.1988 277.3433l0 1.46875l1.046875 0l0 0.34375l-1.046875 0l0 2.890625q0 0.4375 0.125 0.59375q0.125 0.140625 0.328125 0.140625q0.15625 0 0.296875 -0.09375q0.15625 -0.09375 0.25 -0.296875l0.1875 0q-0.171875 0.484375 -0.484375 0.734375q-0.3125 0.234375 -0.640625 0.234375q-0.234375 0 -0.453125 -0.125q-0.203125 -0.125 -0.3125 -0.359375q-0.09375 -0.234375 -0.09375 -0.71875l0 -3.0l-0.71875 0l0 -0.171875q0.265625 -0.109375 0.546875 -0.359375q0.28125 -0.25 0.5 -0.609375q0.125 -0.1875 0.3125 -0.671875l0.15625 0z" fill-rule="nonzero"></path><path fill="#000000" fill-opacity="0.0" d="m417.32547 135.0971l34.04724 0l0 30.582687l-34.04724 0z" fill-rule="evenodd"></path><path stroke="#595959" stroke-width="1.0" stroke-linejoin="round" stroke-linecap="butt" d="m417.32547 135.0971l34.04724 0l0 30.582687l-34.04724 0z" fill-rule="evenodd"></path><path fill="#000000" fill-opacity="0.0" d="m417.32547 165.6841l34.04724 0l0 30.582687l-34.04724 0z" fill-rule="evenodd"></path><path stroke="#595959" stroke-width="1.0" stroke-linejoin="round" stroke-linecap="butt" d="m417.32547 165.6841l34.04724 0l0 30.582687l-34.04724 0z" fill-rule="evenodd"></path><path fill="#000000" fill-opacity="0.0" d="m417.32547 196.2711l34.04724 0l0 30.582672l-34.04724 0z" fill-rule="evenodd"></path><path stroke="#595959" stroke-width="1.0" stroke-linejoin="round" stroke-linecap="butt" d="m417.32547 196.2711l34.04724 0l0 30.582672l-34.04724 0z" fill-rule="evenodd"></path><path fill="#000000" fill-opacity="0.0" d="m317.37537 192.87262l0 40.031494l-24.59842 0l0 -40.031494z" fill-rule="evenodd"></path><path fill="#000000" d="m295.71722 203.74762q0 0.34375 -0.25 0.578125q-0.234375 0.234375 -0.5625 0.234375q-0.34375 0 -0.578125 -0.234375q-0.234375 -0.234375 -0.234375 -0.578125q0 -0.34375 0.234375 -0.578125q0.234375 -0.234375 0.578125 -0.234375q0.34375 0 0.578125 0.234375q0.234375 0.234375 0.234375 0.578125zm0 7.328125q0 0.34375 -0.25 0.578125q-0.234375 0.234375 -0.5625 0.234375q-0.34375 0 -0.578125 -0.234375q-0.234375 -0.234375 -0.234375 -0.578125q0 -0.34375 0.234375 -0.578125q0.234375 -0.234375 0.578125 -0.234375q0.34375 0 0.578125 0.234375q0.234375 0.234375 0.234375 0.578125zm0 7.328125q0 0.34375 -0.25 0.578125q-0.234375 0.234375 -0.5625 0.234375q-0.34375 0 -0.578125 -0.234375q-0.234375 -0.234375 -0.234375 -0.578125q0 -0.34375 0.234375 -0.578125q0.234375 -0.234375 0.578125 -0.234375q0.34375 0 0.578125 0.234375q0.234375 0.234375 0.234375 0.578125z" fill-rule="nonzero"></path><path fill="#000000" fill-opacity="0.0" d="m417.32547 226.8581l34.04724 0l0 30.582672l-34.04724 0z" fill-rule="evenodd"></path><path stroke="#595959" stroke-width="1.0" stroke-linejoin="round" stroke-linecap="butt" d="m417.32547 226.8581l34.04724 0l0 30.582672l-34.04724 0z" fill-rule="evenodd"></path><path fill="#000000" fill-opacity="0.0" d="m409.15894 254.70079l57.95276 0l0 22.992111l-57.95276 0z" fill-rule="evenodd"></path><path fill="#000000" d="m425.03394 267.62454l0 3.4375l-0.265625 0q-0.140625 -1.0 -0.484375 -1.578125q-0.328125 -0.59375 -0.96875 -0.9375q-0.625 -0.34375 -1.296875 -0.34375q-0.765625 0 -1.265625 0.46875q-0.484375 0.46875 -0.484375 1.0625q0 0.453125 0.3125 0.828125q0.453125 0.546875 2.15625 1.46875q1.390625 0.734375 1.890625 1.140625q0.515625 0.390625 0.78125 0.9375q0.28125 0.546875 0.28125 1.140625q0 1.125 -0.875 1.953125q-0.875 0.8125 -2.25 0.8125q-0.421875 0 -0.8125 -0.078125q-0.21875 -0.03125 -0.9375 -0.265625q-0.71875 -0.234375 -0.90625 -0.234375q-0.1875 0 -0.296875 0.109375q-0.09375 0.109375 -0.15625 0.46875l-0.265625 0l0 -3.40625l0.265625 0q0.203125 1.0625 0.515625 1.59375q0.328125 0.53125 0.984375 0.890625q0.671875 0.34375 1.453125 0.34375q0.921875 0 1.453125 -0.484375q0.53125 -0.484375 0.53125 -1.140625q0 -0.375 -0.203125 -0.734375q-0.203125 -0.375 -0.625 -0.703125q-0.28125 -0.21875 -1.5625 -0.921875q-1.265625 -0.71875 -1.8125 -1.140625q-0.53125 -0.4375 -0.8125 -0.9375q-0.28125 -0.515625 -0.28125 -1.140625q0 -1.0625 0.8125 -1.828125q0.828125 -0.78125 2.09375 -0.78125q0.796875 0 1.671875 0.390625q0.421875 0.171875 0.578125 0.171875q0.203125 0 0.3125 -0.109375q0.125 -0.109375 0.203125 -0.453125l0.265625 0zm7.6198425 3.453125l0 4.0625q0 1.15625 0.046875 1.421875q0.0625 0.265625 0.1875 0.375q0.125 0.09375 0.28125 0.09375q0.234375 0 0.515625 -0.125l0.109375 0.25l-2.015625 0.828125l-0.328125 0l0 -1.421875q-0.859375 0.9375 -1.3125 1.1875q-0.453125 0.234375 -0.96875 0.234375q-0.5625 0 -0.984375 -0.328125q-0.40625 -0.328125 -0.5625 -0.828125q-0.15625 -0.515625 -0.15625 -1.453125l0 -3.0q0 -0.46875 -0.109375 -0.65625q-0.109375 -0.1875 -0.3125 -0.28125q-0.1875 -0.109375 -0.71875 -0.09375l0 -0.265625l2.34375 0l0 4.484375q0 0.9375 0.328125 1.234375q0.328125 0.28125 0.796875 0.28125q0.3125 0 0.703125 -0.1875q0.40625 -0.203125 0.953125 -0.75l0 -3.8125q0 -0.5625 -0.21875 -0.765625q-0.203125 -0.203125 -0.859375 -0.21875l0 -0.265625l2.28125 0zm3.453125 1.21875q0.71875 -0.734375 0.859375 -0.84375q0.328125 -0.265625 0.703125 -0.421875q0.390625 -0.15625 0.765625 -0.15625q0.625 0 1.078125 0.375q0.453125 0.359375 0.609375 1.046875q0.75 -0.875 1.265625 -1.140625q0.53125 -0.28125 1.078125 -0.28125q0.53125 0 0.9375 0.28125q0.421875 0.265625 0.671875 0.890625q0.15625 0.421875 0.15625 1.328125l0 2.890625q0 0.625 0.09375 0.859375q0.078125 0.171875 0.265625 0.28125q0.203125 0.109375 0.65625 0.109375l0 0.265625l-3.3125 0l0 -0.265625l0.140625 0q0.421875 0 0.671875 -0.171875q0.15625 -0.109375 0.234375 -0.375q0.03125 -0.125 0.03125 -0.703125l0 -2.890625q0 -0.8125 -0.203125 -1.15625q-0.28125 -0.46875 -0.90625 -0.46875q-0.390625 0 -0.78125 0.203125q-0.390625 0.1875 -0.953125 0.71875l-0.015625 0.078125l0.015625 0.3125l0 3.203125q0 0.6875 0.078125 0.859375q0.078125 0.171875 0.28125 0.28125q0.21875 0.109375 0.734375 0.109375l0 0.265625l-3.390625 0l0 -0.265625q0.5625 0 0.765625 -0.125q0.203125 -0.140625 0.28125 -0.40625q0.046875 -0.125 0.046875 -0.71875l0 -2.890625q0 -0.8125 -0.25 -1.171875q-0.3125 -0.46875 -0.890625 -0.46875q-0.40625 0 -0.78125 0.203125q-0.609375 0.328125 -0.9375 0.734375l0 3.59375q0 0.65625 0.078125 0.859375q0.09375 0.1875 0.265625 0.296875q0.1875 0.09375 0.734375 0.09375l0 0.265625l-3.3125 0l0 -0.265625q0.46875 0 0.640625 -0.09375q0.1875 -0.109375 0.28125 -0.3125q0.09375 -0.21875 0.09375 -0.84375l0 -2.5625q0 -1.109375 -0.0625 -1.4375q-0.046875 -0.234375 -0.15625 -0.328125q-0.109375 -0.09375 -0.3125 -0.09375q-0.203125 0 -0.484375 0.109375l-0.109375 -0.265625l2.015625 -0.8125l0.328125 0l0 1.421875z" fill-rule="nonzero"></path><path fill="#000000" d="m446.64764 277.3433l0 1.46875l1.046875 0l0 0.34375l-1.046875 0l0 2.890625q0 0.4375 0.125 0.59375q0.125 0.140625 0.328125 0.140625q0.15625 0 0.296875 -0.09375q0.15625 -0.09375 0.25 -0.296875l0.1875 0q-0.171875 0.484375 -0.484375 0.734375q-0.3125 0.234375 -0.640625 0.234375q-0.234375 0 -0.453125 -0.125q-0.203125 -0.125 -0.3125 -0.359375q-0.09375 -0.234375 -0.09375 -0.71875l0 -3.0l-0.71875 0l0 -0.171875q0.265625 -0.109375 0.546875 -0.359375q0.28125 -0.25 0.5 -0.609375q0.125 -0.1875 0.3125 -0.671875l0.15625 0z" fill-rule="nonzero"></path><path fill="#000000" fill-opacity="0.0" d="m230.52101 192.46455l0 40.031494l-22.992126 0l0 -40.031494z" fill-rule="evenodd"></path><path fill="#000000" d="m208.86288 203.33955q0 0.34375 -0.25 0.578125q-0.234375 0.234375 -0.5625 0.234375q-0.34375 0 -0.578125 -0.234375q-0.234375 -0.234375 -0.234375 -0.578125q0 -0.34375 0.234375 -0.578125q0.234375 -0.234375 0.578125 -0.234375q0.34375 0 0.578125 0.234375q0.234375 0.234375 0.234375 0.578125zm0 7.328125q0 0.34375 -0.25 0.578125q-0.234375 0.234375 -0.5625 0.234375q-0.34375 0 -0.578125 -0.234375q-0.234375 -0.234375 -0.234375 -0.578125q0 -0.34375 0.234375 -0.578125q0.234375 -0.234375 0.578125 -0.234375q0.34375 0 0.578125 0.234375q0.234375 0.234375 0.234375 0.578125zm0 7.328125q0 0.34375 -0.25 0.578125q-0.234375 0.234375 -0.5625 0.234375q-0.34375 0 -0.578125 -0.234375q-0.234375 -0.234375 -0.234375 -0.578125q0 -0.34375 0.234375 -0.578125q0.234375 -0.234375 0.578125 -0.234375q0.34375 0 0.578125 0.234375q0.234375 0.234375 0.234375 0.578125z" fill-rule="nonzero"></path><path fill="#000000" fill-opacity="0.0" d="m384.36087 192.46455l0 40.031494l-22.992126 0l0 -40.031494z" fill-rule="evenodd"></path><path fill="#000000" d="m362.70276 203.33955q0 0.34375 -0.25 0.578125q-0.234375 0.234375 -0.5625 0.234375q-0.34375 0 -0.578125 -0.234375q-0.234375 -0.234375 -0.234375 -0.578125q0 -0.34375 0.234375 -0.578125q0.234375 -0.234375 0.578125 -0.234375q0.34375 0 0.578125 0.234375q0.234375 0.234375 0.234375 0.578125zm0 7.328125q0 0.34375 -0.25 0.578125q-0.234375 0.234375 -0.5625 0.234375q-0.34375 0 -0.578125 -0.234375q-0.234375 -0.234375 -0.234375 -0.578125q0 -0.34375 0.234375 -0.578125q0.234375 -0.234375 0.578125 -0.234375q0.34375 0 0.578125 0.234375q0.234375 0.234375 0.234375 0.578125zm0 7.328125q0 0.34375 -0.25 0.578125q-0.234375 0.234375 -0.5625 0.234375q-0.34375 0 -0.578125 -0.234375q-0.234375 -0.234375 -0.234375 -0.578125q0 -0.34375 0.234375 -0.578125q0.234375 -0.234375 0.578125 -0.234375q0.34375 0 0.578125 0.234375q0.234375 0.234375 0.234375 0.578125z" fill-rule="nonzero"></path><path fill="#000000" fill-opacity="0.0" d="m456.36087 192.46455l0 40.031494l-22.992126 0l0 -40.031494z" fill-rule="evenodd"></path><path fill="#000000" d="m434.70276 203.33955q0 0.34375 -0.25 0.578125q-0.234375 0.234375 -0.5625 0.234375q-0.34375 0 -0.578125 -0.234375q-0.234375 -0.234375 -0.234375 -0.578125q0 -0.34375 0.234375 -0.578125q0.234375 -0.234375 0.578125 -0.234375q0.34375 0 0.578125 0.234375q0.234375 0.234375 0.234375 0.578125zm0 7.328125q0 0.34375 -0.25 0.578125q-0.234375 0.234375 -0.5625 0.234375q-0.34375 0 -0.578125 -0.234375q-0.234375 -0.234375 -0.234375 -0.578125q0 -0.34375 0.234375 -0.578125q0.234375 -0.234375 0.578125 -0.234375q0.34375 0 0.578125 0.234375q0.234375 0.234375 0.234375 0.578125zm0 7.328125q0 0.34375 -0.25 0.578125q-0.234375 0.234375 -0.5625 0.234375q-0.34375 0 -0.578125 -0.234375q-0.234375 -0.234375 -0.234375 -0.578125q0 -0.34375 0.234375 -0.578125q0.234375 -0.234375 0.578125 -0.234375q0.34375 0 0.578125 0.234375q0.234375 0.234375 0.234375 0.578125z" fill-rule="nonzero"></path><path fill="#000000" fill-opacity="0.0" d="m238.03798 129.1812l57.952744 0l0 22.992126l-57.952744 0z" fill-rule="evenodd"></path><path fill="#000000" d="m250.95985 151.22995l0 -3.65625l-3.65625 0l0 -0.59375l3.65625 0l0 -3.640625l0.578125 0l0 3.640625l3.671875 0l0 0.59375l-3.671875 0l0 3.65625l-0.578125 0z" fill-rule="nonzero"></path><path fill="#000000" fill-opacity="0.0" d="m238.03798 161.1812l57.952744 0l0 22.992126l-57.952744 0z" fill-rule="evenodd"></path><path fill="#000000" d="m250.95985 183.22995l0 -3.65625l-3.65625 0l0 -0.59375l3.65625 0l0 -3.640625l0.578125 0l0 3.640625l3.671875 0l0 0.59375l-3.671875 0l0 3.65625l-0.578125 0z" fill-rule="nonzero"></path><path fill="#000000" fill-opacity="0.0" d="m238.03798 223.34134l57.952744 0l0 22.992126l-57.952744 0z" fill-rule="evenodd"></path><path fill="#000000" d="m250.95985 245.39008l0 -3.65625l-3.65625 0l0 -0.59375l3.65625 0l0 -3.640625l0.578125 0l0 3.640625l3.671875 0l0 0.59375l-3.671875 0l0 3.65625l-0.578125 0z" fill-rule="nonzero"></path><path fill="#000000" fill-opacity="0.0" d="m316.19812 129.1812l57.95276 0l0 22.992126l-57.95276 0z" fill-rule="evenodd"></path><path fill="#000000" d="m329.12 151.22995l0 -3.65625l-3.65625 0l0 -0.59375l3.65625 0l0 -3.640625l0.578125 0l0 3.640625l3.671875 0l0 0.59375l-3.671875 0l0 3.65625l-0.578125 0z" fill-rule="nonzero"></path><path fill="#000000" fill-opacity="0.0" d="m316.19812 161.1812l57.95276 0l0 22.992126l-57.95276 0z" fill-rule="evenodd"></path><path fill="#000000" d="m329.12 183.22995l0 -3.65625l-3.65625 0l0 -0.59375l3.65625 0l0 -3.640625l0.578125 0l0 3.640625l3.671875 0l0 0.59375l-3.671875 0l0 3.65625l-0.578125 0z" fill-rule="nonzero"></path><path fill="#000000" fill-opacity="0.0" d="m316.19812 222.4214l57.95276 0l0 22.992126l-57.95276 0z" fill-rule="evenodd"></path><path fill="#000000" d="m329.12 244.47015l0 -3.65625l-3.65625 0l0 -0.59375l3.65625 0l0 -3.640625l0.578125 0l0 3.640625l3.671875 0l0 0.59375l-3.671875 0l0 3.65625l-0.578125 0z" fill-rule="nonzero"></path><path fill="#000000" fill-opacity="0.0" d="m385.43832 129.1812l57.95276 0l0 22.992126l-57.95276 0z" fill-rule="evenodd"></path><path fill="#000000" d="m394.70395 145.79245l7.90625 0l0 0.609375l-7.90625 0l0 -0.609375zm0 2.390625l7.90625 0l0 0.59375l-7.90625 0l0 -0.59375z" fill-rule="nonzero"></path><path fill="#000000" fill-opacity="0.0" d="m385.43832 161.1812l57.95276 0l0 22.992126l-57.95276 0z" fill-rule="evenodd"></path><path fill="#000000" d="m394.70395 177.79245l7.90625 0l0 0.609375l-7.90625 0l0 -0.609375zm0 2.390625l7.90625 0l0 0.59375l-7.90625 0l0 -0.59375z" fill-rule="nonzero"></path><path fill="#000000" fill-opacity="0.0" d="m385.43832 222.4214l57.95276 0l0 22.992126l-57.95276 0z" fill-rule="evenodd"></path><path fill="#000000" d="m394.70395 239.03265l7.90625 0l0 0.609375l-7.90625 0l0 -0.609375zm0 2.390625l7.90625 0l0 0.59375l-7.90625 0l0 -0.59375z" fill-rule="nonzero"></path><path fill="#000000" fill-opacity="0.0" d="m188.19812 86.70079l57.95276 0l0 22.992126l-57.95276 0z" fill-rule="evenodd"></path><path fill="#000000" d="m203.64343 99.35891l0 8.90625q0 0.625 0.078125 0.84375q0.09375 0.203125 0.28125 0.3125q0.203125 0.09375 0.71875 0.09375l0 0.265625l-3.28125 0l0 -0.265625q0.453125 0 0.625 -0.09375q0.171875 -0.09375 0.265625 -0.3125q0.09375 -0.21875 0.09375 -0.84375l0 -6.09375q0 -1.140625 -0.0625 -1.390625q-0.046875 -0.265625 -0.15625 -0.359375q-0.109375 -0.09375 -0.28125 -0.09375q-0.203125 0 -0.484375 0.109375l-0.125 -0.25l2.0 -0.828125l0.328125 0z" fill-rule="nonzero"></path><path fill="#000000" d="m206.54353 109.343285l0 1.46875l1.046875 0l0 0.34375l-1.046875 0l0 2.890625q0 0.4375 0.125 0.59375q0.125 0.140625 0.328125 0.140625q0.15625 0 0.296875 -0.09375q0.15625 -0.09375 0.25 -0.296875l0.1875 0q-0.171875 0.484375 -0.484375 0.734375q-0.3125 0.234375 -0.640625 0.234375q-0.234375 0 -0.453125 -0.125q-0.203125 -0.125 -0.3125 -0.359375q-0.09375 -0.234375 -0.09375 -0.71875l0 -3.0l-0.71875 0l0 -0.171875q0.265625 -0.109375 0.546875 -0.359375q0.28125 -0.25 0.5 -0.609375q0.125 -0.1875 0.3125 -0.671875l0.15625 0zm1.5100403 3.328125l2.53125 0l0 0.734375l-2.53125 0l0 -0.734375zm7.4238586 1.328125l-0.453125 1.28125l-3.90625 0l0 -0.1875q1.71875 -1.5625 2.421875 -2.5625q0.703125 -1.0 0.703125 -1.828125q0 -0.625 -0.390625 -1.03125q-0.375 -0.40625 -0.921875 -0.40625q-0.484375 0 -0.875 0.296875q-0.390625 0.28125 -0.5625 0.828125l-0.1875 0q0.125 -0.90625 0.625 -1.390625q0.5 -0.484375 1.265625 -0.484375q0.796875 0 1.34375 0.53125q0.546875 0.515625 0.546875 1.21875q0 0.5 -0.234375 1.0q-0.375 0.796875 -1.171875 1.671875q-1.21875 1.328125 -1.53125 1.609375l1.734375 0q0.53125 0 0.734375 -0.03125q0.21875 -0.046875 0.390625 -0.171875q0.171875 -0.125 0.296875 -0.34375l0.171875 0z" fill-rule="nonzero"></path><path fill="#000000" d="m212.70593 127.65579l-4.34375 -4.328125l-4.328125 4.328125l-0.9375 -0.9375l4.328125 -4.328125l-4.28125 -4.28125l0.9375 -0.9375l4.28125 4.28125l4.28125 -4.28125l0.9375 0.9375l-4.28125 4.28125l4.34375 4.328125l-0.9375 0.9375z" fill-rule="nonzero"></path><path fill="#000000" fill-opacity="0.0" d="m274.9988 86.70079l57.95276 0l0 22.992126l-57.95276 0z" fill-rule="evenodd"></path><path fill="#000000" d="m290.44412 99.35891l0 8.90625q0 0.625 0.078125 0.84375q0.09375 0.203125 0.28125 0.3125q0.203125 0.09375 0.71875 0.09375l0 0.265625l-3.28125 0l0 -0.265625q0.453125 0 0.625 -0.09375q0.171875 -0.09375 0.265625 -0.3125q0.09375 -0.21875 0.09375 -0.84375l0 -6.09375q0 -1.140625 -0.0625 -1.390625q-0.046875 -0.265625 -0.15625 -0.359375q-0.109375 -0.09375 -0.28125 -0.09375q-0.203125 0 -0.484375 0.109375l-0.125 -0.25l2.0 -0.828125l0.328125 0z" fill-rule="nonzero"></path><path fill="#000000" d="m293.3442 109.343285l0 1.46875l1.046875 0l0 0.34375l-1.046875 0l0 2.890625q0 0.4375 0.125 0.59375q0.125 0.140625 0.328125 0.140625q0.15625 0 0.296875 -0.09375q0.15625 -0.09375 0.25 -0.296875l0.1875 0q-0.171875 0.484375 -0.484375 0.734375q-0.3125 0.234375 -0.640625 0.234375q-0.234375 0 -0.453125 -0.125q-0.203125 -0.125 -0.3125 -0.359375q-0.09375 -0.234375 -0.09375 -0.71875l0 -3.0l-0.71875 0l0 -0.171875q0.265625 -0.109375 0.546875 -0.359375q0.28125 -0.25 0.5 -0.609375q0.125 -0.1875 0.3125 -0.671875l0.15625 0zm1.5100403 3.328125l2.53125 0l0 0.734375l-2.53125 0l0 -0.734375zm4.0176086 -3.359375l1.609375 -0.796875l0.15625 0l0 5.59375q0 0.5625 0.046875 0.703125q0.046875 0.125 0.1875 0.203125q0.15625 0.078125 0.609375 0.078125l0 0.1875l-2.484375 0l0 -0.1875q0.46875 0 0.59375 -0.0625q0.140625 -0.078125 0.1875 -0.203125q0.0625 -0.125 0.0625 -0.71875l0 -3.5625q0 -0.734375 -0.046875 -0.9375q-0.03125 -0.15625 -0.125 -0.21875q-0.09375 -0.078125 -0.21875 -0.078125q-0.1875 0 -0.5 0.140625l-0.078125 -0.140625z" fill-rule="nonzero"></path><path fill="#000000" d="m299.50662 127.65579l-4.34375 -4.328125l-4.328125 4.328125l-0.9375 -0.9375l4.328125 -4.328125l-4.28125 -4.28125l0.9375 -0.9375l4.28125 4.28125l4.28125 -4.28125l0.9375 0.9375l-4.28125 4.28125l4.34375 4.328125l-0.9375 0.9375z" fill-rule="nonzero"></path><path fill="#000000" fill-opacity="0.0" d="m343.59845 86.70079l57.95276 0l0 22.992126l-57.95276 0z" fill-rule="evenodd"></path><path fill="#000000" d="m359.04376 99.35891l0 8.90625q0 0.625 0.078125 0.84375q0.09375 0.203125 0.28125 0.3125q0.203125 0.09375 0.71875 0.09375l0 0.265625l-3.28125 0l0 -0.265625q0.453125 0 0.625 -0.09375q0.171875 -0.09375 0.265625 -0.3125q0.09375 -0.21875 0.09375 -0.84375l0 -6.09375q0 -1.140625 -0.0625 -1.390625q-0.046875 -0.265625 -0.15625 -0.359375q-0.109375 -0.09375 -0.28125 -0.09375q-0.203125 0 -0.484375 0.109375l-0.125 -0.25l2.0 -0.828125l0.328125 0z" fill-rule="nonzero"></path><path fill="#000000" d="m361.94388 109.343285l0 1.46875l1.046875 0l0 0.34375l-1.046875 0l0 2.890625q0 0.4375 0.125 0.59375q0.125 0.140625 0.328125 0.140625q0.15625 0 0.296875 -0.09375q0.15625 -0.09375 0.25 -0.296875l0.1875 0q-0.171875 0.484375 -0.484375 0.734375q-0.3125 0.234375 -0.640625 0.234375q-0.234375 0 -0.453125 -0.125q-0.203125 -0.125 -0.3125 -0.359375q-0.09375 -0.234375 -0.09375 -0.71875l0 -3.0l-0.71875 0l0 -0.171875q0.265625 -0.109375 0.546875 -0.359375q0.28125 -0.25 0.5 -0.609375q0.125 -0.1875 0.3125 -0.671875l0.15625 0z" fill-rule="nonzero"></path><path fill="#000000" d="m368.10626 127.65579l-4.34375 -4.328125l-4.328125 4.328125l-0.9375 -0.9375l4.328125 -4.328125l-4.28125 -4.28125l0.9375 -0.9375l4.28125 4.28125l4.28125 -4.28125l0.9375 0.9375l-4.28125 4.28125l4.34375 4.328125l-0.9375 0.9375z" fill-rule="nonzero"></path></g></svg>

